<svg id="visual" viewBox="0 0 900 600" width="900" height="600" xmlns="http://www.w3.org/2000/svg" xmlns:xlink="http://www.w3.org/1999/xlink" version="1.1"><path d="M0 109L30 102C60 95 120 81 180 88C240 95 300 123 360 127C420 131 480 111 540 107C600 103 660 115 720 125C780 135 840 143 870 147L900 151L900 0L870 0C840 0 780 0 720 0C660 0 600 0 540 0C480 0 420 0 360 0C300 0 240 0 180 0C120 0 60 0 30 0L0 0Z" fill="#142e6c"></path><path d="M0 193L30 184C60 175 120 157 180 172C240 187 300 235 360 242C420 249 480 215 540 197C600 179 660 177 720 188C780 199 840 223 870 235L900 247L900 149L870 145C840 141 780 133 720 123C660 113 600 101 540 105C480 109 420 129 360 125C300 121 240 93 180 86C120 79 60 93 30 100L0 107Z" fill="#646796"></path><path d="M0 301L30 313C60 325 120 349 180 371C240 393 300 413 360 434C420 455 480 477 540 486C600 495 660 491 720 482C780 473 840 459 870 452L900 445L900 245L870 233C840 221 780 197 720 186C660 175 600 177 540 195C480 213 420 247 360 240C300 233 240 185 180 170C120 155 60 173 30 182L0 191Z" fill="#a8a8c2"></path><path d="M0 601L30 601C60 601 120 601 180 601C240 601 300 601 360 601C420 601 480 601 540 601C600 601 660 601 720 601C780 601 840 601 870 601L900 601L900 443L870 450C840 457 780 471 720 480C660 489 600 493 540 484C480 475 420 453 360 432C300 411 240 391 180 369C120 347 60 323 30 311L0 299Z" fill="#eeeeee"></path></svg>